<svg xmlns="http://www.w3.org/2000/svg" width="346" height="281" fill="none"><g fill="#EDFFCC" filter="url(#a)"><path d="M291.629 241.125c-.908-2.381-3.784-3.455-5.769-1.526-1.951 1.895-3.885 3.791-5.836 5.686-1.194 1.157-2.506 2.852-3.936 4.026-.437-.504-.874-1.007-1.312-1.493-.891-1.023-1.799-2.047-2.691-3.07l-5.399-6.139c-1.514-1.727-4.322-1.073-5.432.705-2.809 4.529-5.635 9.057-8.444 13.586a44.063 44.063 0 0 1-7.299-10.567c-1.968-3.975-7.939-.486-5.971 3.472a49.07 49.07 0 0 0 11.488 14.978c1.682 1.493 4.204 1.275 5.432-.704 2.759-4.428 5.5-8.856 8.258-13.268l3.549 4.043c1.867 2.13 3.953 5.568 7.047 5.854 3.347.318 5.584-2.651 7.737-4.764 1.278-1.241 2.54-2.482 3.818-3.724a181.685 181.685 0 0 1 3.229 10.265c1.195 4.261 7.872 2.449 6.661-1.828a178.939 178.939 0 0 0-5.147-15.548l.017.016zm11.05-42.838a51.29 51.29 0 0 1-8.241-6.005l7.535-8.219c1.379-1.493 1.429-4.428-.707-5.417a32.72 32.72 0 0 1-10.091-7.246c3.616-4.143 7.333-8.169 11.235-12.027 1.581-1.56 1.211-4.294-.706-5.417l-13.523-7.901c-3.852-2.247-7.333 3.707-3.482 5.955 3.247 1.895 6.493 3.791 9.722 5.686-3.549 3.64-6.997 7.363-10.277 11.238-1.311 1.56-1.227 3.304 0 4.881a36.764 36.764 0 0 0 9.84 8.739c-2.271 2.482-4.558 4.965-6.829 7.447-1.261 1.375-1.362 3.506 0 4.881a58.65 58.65 0 0 0 12.043 9.343c3.851 2.247 7.333-3.707 3.481-5.955v.017zm-17.122-85.576c-1.295 1.945-2.573 3.891-3.868 5.853-.656.99-1.295 1.963-1.951 2.952v-.016c-2.792-3.238-5.046-6.877-6.896-10.718-1.934-3.992-7.888-.504-5.971 3.472 1.396 2.885 3.011 5.652 4.911 8.235 1.699 2.315 3.768 5.753 6.678 6.609 3.313.956 5.516-1.476 7.165-3.959 1.194-1.794 2.388-3.606 3.582-5.417 1.009.889 2.018 1.778 3.044 2.65 1.918 1.627 4.037 3.925 6.829 3.271 2.405-.554 3.986-3.087 5.533-4.814 1.245-1.392 2.473-2.785 3.717-4.177 2.574 2.583 5.147 5.183 7.737 7.766 3.145 3.153 8.023-1.727 4.894-4.881-3.431-3.455-6.879-6.91-10.31-10.366-1.261-1.258-3.649-1.392-4.894 0a1288.939 1288.939 0 0 1-4.659 5.234c-.723.821-1.463 1.643-2.186 2.465-.37.403-.724.822-1.094 1.225l-.101.1c-.874-.721-1.782-1.761-2.337-2.247-1.48-1.292-2.927-2.6-4.357-3.942-1.681-1.577-4.187-1.191-5.432.705h-.034zm1.093-45.741c-3.75 1.678-7.265 3.74-10.596 6.072a27.844 27.844 0 0 1-.235-7.011c.235-2.583-3.112-4.31-5.197-2.969-2.153 1.392-4.306 2.768-6.459 4.16-.975.637-1.951 1.258-2.926 1.895-.236.151-.471.302-.723.47v-.067c-.202-1.258-.421-2.516-.623-3.774-.403-2.415-.622-4.948-1.228-7.33-.622-2.516-2.758-4.646-5.533-4.06-2.489.52-4.121 2.852-3.414 5.368.403 1.443 1.446 2.164 2.59 2.365l.235 1.376c.269 1.593.539 3.203.791 4.797.471 2.868.387 7.296 3.195 8.99 3.213 1.93 6.493-1.09 9.083-2.75 1.127-.722 2.237-1.443 3.364-2.164.269 2.55.824 5.065 1.682 7.48.908 2.584 3.717 3.22 5.768 1.527 2.692-2.197 5.584-4.11 8.612-5.804a29.403 29.403 0 0 1-.757 4.932c-1.06 4.31 5.618 6.155 6.66 1.828.993-4.042 1.329-8.202.925-12.345-.269-2.734-2.691-4.11-5.197-2.969l-.017-.017zm-34.664-6.76h-.017c-.134-.57-.134-.57.017 0zm-13.337-27.155c3.01 1.174 6.038 2.365 9.048 3.54 2.557 1.006 5.534 2.733 8.225 1.157 2.338-1.359 2.708-3.992 3.011-6.408l.605-4.83c3.717 1.308 7.602 1.794 11.353-.218 3.498-1.862 4.726-4.982 4.743-8.353a107.7 107.7 0 0 0 9.52 2.297c4.339.84 6.206-5.803 1.833-6.642a104.999 104.999 0 0 1-14.784-3.958c-2.473-.856-5.029 1.828-4.255 4.243.689 2.164 1.984 5.385-.791 6.559-2.859 1.224-6.223-.638-8.729-1.862-2.54-1.241-4.861.319-5.197 2.969-.269 2.18-.538 4.344-.824 6.524-.068.588-.068 1.88-.219 2.902-.37-.134-.757-.285-1.11-.419-1.177-.47-2.355-.923-3.549-1.392-2.354-.923-4.726-1.845-7.081-2.768-1.732-.688-3.801.755-4.255 2.415-.538 1.963.673 3.556 2.422 4.244h.034zm14.716-1.627c.169-.033.185.034 0 0zm-23.159 153.004c3.296-3.304 6.576-6.625 9.872-9.929 1.716 2.851 3.801 5.417 6.375 7.648 1.396 1.208 3.515 1.409 4.894 0 1.884-1.946 3.768-3.891 5.668-5.837.959-.989 1.884-2.029 2.859-3.053 1.195 2.332 2.305 4.747 3.465 7.062 2.002 3.958 7.972.47 5.971-3.472l-3.986-7.9c-1.278-2.516-2.758-4.999-6.072-4.043-2.388.688-4.558 3.909-6.223 5.619l-4.171 4.311c-1.884-2.063-3.465-4.411-4.541-7.011-.959-2.298-3.768-3.539-5.769-1.526-3.448 3.472-6.896 6.927-10.344 10.399-2.052-2.835-4.087-5.669-6.139-8.487-1.093-1.51-3.011-2.248-4.726-1.241-1.497.872-2.338 3.203-1.245 4.713 2.91 4.025 5.803 8.034 8.713 12.06 1.278 1.761 3.733 2.398 5.432.704l-.033-.017zm-10.899-77.659a395.724 395.724 0 0 0 8.51 4.093 62.986 62.986 0 0 0-4.793 3.388c-1.783 1.375-1.06 4.428.706 5.417a47.817 47.817 0 0 1 8.225 5.871c-2.708 1.627-5.433 3.254-8.141 4.881-3.818 2.281-.336 8.236 3.482 5.954 4.02-2.398 8.039-4.814 12.059-7.212 1.951-1.174 2.237-3.791.707-5.418-2.54-2.683-5.366-5.082-8.393-7.195a52.6 52.6 0 0 1 5.483-3.003c2.22-1.057 2.304-4.931 0-5.954a405.284 405.284 0 0 1-10.579-4.948 65.568 65.568 0 0 1 2.539-2.751c1.43-1.493 2.96-3.27 4.626-4.646.857-.034 1.715-.353 2.304-.973 1.059-1.124 1.379-2.315 1.026-3.841-.353-1.527-1.85-2.449-3.33-2.533-3.179-.168-6.123 3.69-8.175 5.736a100.94 100.94 0 0 0-6.946 7.716c-1.295 1.594-1.463 4.328.707 5.418h-.017zM178.621 86.21a104.052 104.052 0 0 1 7.165 17.426c1.312 4.227 7.989 2.432 6.661-1.828a114.4 114.4 0 0 0-5.164-13.536c1.413.084 2.826.185 4.239.268 2.977.185 6.609.873 8.426-2.197 1.581-2.667.084-6.374-.488-9.158-.42-2.013-.841-4.025-1.261-6.055 1.463-.033 2.926-.084 4.39-.15 2.657-.118 5.533-.252 6.828-2.97 1.144-2.382-.134-5.2-.774-7.564-.353-1.292-.706-2.567-1.059-3.858 3.431-.034 6.879-.067 10.31-.084 4.44-.034 4.457-6.927 0-6.894-4.945.05-9.89.084-14.835.134-2.253.017-3.935 2.18-3.33 4.361.572 2.08 1.127 4.16 1.699 6.24l.858 3.12c.033.134.118.369.218.637-.975.05-1.967.084-2.943.117-1.867.068-3.734.084-5.601.101-2.354.017-3.784 2.18-3.33 4.361.538 2.617 1.093 5.233 1.632 7.867.252 1.241.521 2.482.773 3.723.101.504.202.99.303 1.493h-.589c-1.244-.084-2.472-.15-3.717-.235-2.472-.15-4.944-.318-7.434-.47-2.758-.167-4.12 3.02-2.977 5.184v-.034zm16.433-4.328c.235-.185.235 0 0 0zm-3.078 55.602c1.396-1.241 1.261-3.606 0-4.881-1.396-1.375-3.482-1.241-4.895 0-3.767 3.338-7.081 7.129-10.007 11.238-1.245 1.762 0 4.63 2.069 5.066 4.356.889 8.695 1.795 13.051 2.684l-5.735 5.669c-3.162 3.12 1.716 8.001 4.894 4.881l10.294-10.165c1.766-1.744 1.059-5.233-1.531-5.753l-13.926-2.868a59.234 59.234 0 0 1 5.769-5.854l.017-.017zm54.897 74.423c1.733.704 3.801-.755 4.256-2.416.538-1.979-.673-3.539-2.422-4.243-2.624-1.074-5.248-2.13-7.872-3.204-2.254-.906-4.608-2.13-7.097-1.493-2.523.638-3.701 2.6-4.474 4.915a127.153 127.153 0 0 0-1.363 4.478 36.067 36.067 0 0 0-7.484-1.04c-1.548-.05-2.893 1.107-3.33 2.533a44.82 44.82 0 0 0-1.834 9.51c-1.564-.402-3.128-1.274-4.574-1.576-2.221-.47-4.727-.47-6.762.687-2.388 1.359-3.532 3.791-3.801 6.424-.118 1.074-.033 2.131-.067 3.221 0 .168-.185 1.124-.303 1.711-.269-.168-.521-.336-.555-.353-1.211-.821-2.405-1.66-3.616-2.465-2.119-1.443-4.676-2.617-7.165-1.258-2.489 1.342-2.842 3.891-3.011 6.458-.201 3.069-.37 6.138-.555 9.208-.269 4.428 6.644 4.411 6.913 0l.353-5.854.152-2.516v-.168c.941.655 1.883 1.493 2.455 1.896 1.581 1.073 3.145 2.247 5.13 2.348 3.583.185 6.038-2.851 6.812-6.055.387-1.61.218-3.22.269-4.847.05-1.342.134-1.929 1.581-1.778 1.699.167 3.263 1.056 4.877 1.526 2.036.587 3.987.704 6.055.218 1.48-.352 2.523-1.845 2.54-3.321a38.66 38.66 0 0 1 1.009-8.37c2.153.285 4.239.805 6.324 1.543 1.783.638 3.751-.738 4.255-2.415.539-1.828 1.094-3.657 1.632-5.502.185-.603.589-1.509.673-2.18.151.05.286.084.437.151 3.566 1.291 7.047 2.851 10.562 4.277v-.05zm63.997 12.932a181.828 181.828 0 0 0-10.478-5.468c-4.003-1.912-7.031 4.277-3.011 6.206a177.732 177.732 0 0 1 15.339 8.302c2.338 1.426 5.029-.956 4.962-3.337-.067-2.617-.034-5.234.218-7.85.135-1.376.303-2.734.505-4.093 0-.033.05-.218.101-.419.824.419 1.749.788 2.506 1.191 1.329.687 2.641 1.375 3.969 2.063 2.725 1.409 5.45 2.834 8.158 4.243 3.935 2.047 6.963-4.159 3.01-6.206l-9.789-5.082c-1.715-.889-3.414-1.795-5.129-2.667-1.531-.755-3.179-1.291-4.878-.956-4.39.855-4.709 5.837-5.113 9.427a85.769 85.769 0 0 0-.353 4.662l-.017-.016zm-125.201-22.174 2.825-10.215c.656-2.399-1.715-5.133-4.255-4.244a78.193 78.193 0 0 1-10.445 2.835l-.151-7.8c-.034-2.197-2.187-3.958-4.373-3.321-3.313.973-6.627 1.929-9.923 2.902.134-2.432.487-4.831 1.177-7.246.69-2.482-1.716-5.015-4.255-4.243-2.927.888-5.853 1.794-8.797 2.683.841-4.78 1.699-9.577 2.54-14.358.673-3.841-4.037-5.971-6.324-2.65-.336.487-.69.99-1.026 1.476-.875 1.275-.723 2.5-.05 3.439-.959 5.367-1.901 10.751-2.86 16.119-.437 2.449 1.531 5.065 4.256 4.243 2.892-.889 5.769-1.761 8.661-2.65-.319 2.566-.42 5.166-.235 7.766.168 2.181 2.086 3.992 4.373 3.321l9.99-2.918c.051 2.432.101 4.864.135 7.279.05 2.466 2.153 3.64 4.373 3.321a74.893 74.893 0 0 0 8.83-1.794c-.387 1.392-.774 2.801-1.16 4.193-1.178 4.277 5.483 6.105 6.66 1.828l.034.034zm-78.378-69.944c1.766 1.04 3.6.251 4.727-1.241 2.539-3.355 5.062-6.71 7.602-10.064a47.077 47.077 0 0 0 2.54 2.969c1.9 2.029 4.389 5.048 7.316 5.401 3.296.385 5.365-2.231 7.098-4.596a31.048 31.048 0 0 0 2.371-3.774c.252-.47.471-.956.706-1.443.455.503.925 1.007 1.38 1.493 1.227 1.325 2.455 2.667 3.683 3.992 1.261 1.359 3.616 1.275 4.894 0a99.743 99.743 0 0 1 8.999-8.051c1.816 2.331 3.616 4.663 5.432 6.978 1.144 1.476 3.684 1.207 4.895 0 1.463-1.46 1.143-3.405 0-4.881a3682.108 3682.108 0 0 1-7.25-9.326c-.84-1.09-3.077-1.359-4.187-.537a108.885 108.885 0 0 0-10.176 8.437c-.656-.705-1.295-1.409-1.951-2.113-1.177-1.292-2.321-2.852-3.919-3.674-3.582-1.845-6.257.973-7.636 3.959a31.535 31.535 0 0 1-2.539 4.528c-.085.118-.808.99-1.279 1.594-.117-.101-.235-.201-.353-.319a44.675 44.675 0 0 1-6.963-8.135c-1.547-2.314-4.39-2.096-5.971 0-3.549 4.68-7.081 9.376-10.63 14.056-1.126 1.493-.235 3.858 1.245 4.713l-.034.034zm30.998-14.207h-.034c-.235-.268-.218-.252.034 0zm-1.598-51.744c0 4.679-.689 8.755-2.203 13.267-.706 2.113 1.177 4.394 3.33 4.36 4.121-.067 8.242-.385 12.329-.888l-2.271 3.656c-.942 1.543-.387 3.858 1.245 4.713 1.682.89 3.717.403 4.726-1.24a3012.83 3012.83 0 0 1 6.122-9.897c.723-1.174.572-2.784-.269-3.824-.908-1.14-2.22-1.493-3.633-1.241a106.4 106.4 0 0 1-13.674 1.643 48.645 48.645 0 0 0 1.211-10.567c0-1.794-1.598-3.522-3.465-3.455-1.867.084-3.448 1.51-3.465 3.455l.017.017zm25.616-37.79c2.035.804 4.07 1.626 6.088 2.431-1.429 1.074-2.859 2.13-4.305 3.204-1.598 1.19-2.591 3.858-.707 5.418a45.307 45.307 0 0 0 7.636 5.065 106.095 106.095 0 0 1-5.55 3.489c-3.852 2.23-.37 8.185 3.481 5.954 3.953-2.297 7.67-4.88 11.269-7.682 2.237-1.744.622-4.981-1.53-5.753-2.49-.906-4.861-2.113-7.081-3.539 1.816-1.358 3.649-2.717 5.466-4.076 2.489-1.862 2.052-5.15-.824-6.306-1.346-.537-2.708-1.074-4.054-1.627.32-.151.64-.286.942-.437 2.557-1.258 6.291-2.616 7.3-5.551 1.16-3.405-1.379-5.67-3.717-7.7a1587.211 1587.211 0 0 0-8.04-6.977c-3.347-2.902-8.258 1.946-4.894 4.881l5.466 4.747c.858.738 1.716 1.493 2.573 2.23.354.303.69.604 1.043.906-1.295.722-3.095 1.46-3.952 1.862a79.457 79.457 0 0 1-6.644 2.801c-3.33 1.241-3.196 5.368 0 6.642l.034.017zM83.375 46.893c1.782 1.04 3.582.252 4.726-1.241a3528.76 3528.76 0 0 0 3.515-4.563c.202-.251 1.884-2.197 2.775-3.37l.404.351c.84.755 1.682 1.493 2.54 2.248l4.44 3.925c1.631 1.442 4.272 1.325 5.432-.705a53.968 53.968 0 0 1 5.921-8.436c1.127 1.14 2.237 2.28 3.364 3.404 1.681 1.678 3.532 2.953 6.004 2.231 2.254-.654 4.188-2.851 5.937-4.31 1.11-.906 2.203-1.829 3.313-2.734a47.207 47.207 0 0 1 3.129 5.92c.74 1.711 3.246 2.097 4.726 1.242 1.766-1.023 1.985-3.003 1.245-4.714a47.989 47.989 0 0 0-5.366-9.258c-1.413-1.896-3.582-2.231-5.432-.705-2.927 2.415-5.853 4.848-8.78 7.263l-.017.017c-.387-.587-1.194-1.158-1.648-1.627a968.994 968.994 0 0 1-4.137-4.194c-1.296-1.308-3.6-1.325-4.895 0a61.306 61.306 0 0 0-7.148 8.857c-1.144-1.007-2.287-2.03-3.431-3.036-2.002-1.778-4.154-3.992-7.115-3.288-2.455.587-3.8 2.969-5.23 4.83l-5.534 7.18c-1.144 1.476-.235 3.858 1.245 4.713h.017zm-19.225 53.12c.774 1.342 1.346 2.785 1.53 4.328.068.587.068 1.241.051 1.828 0 .201-.033.419-.05.621-.64-.135-1.329-.302-1.783-.403-1.413-.268-2.809-.57-4.222-.788-2.876-.47-5.533.251-6.576 3.237-.84 2.415-1.16 5.133-1.682 7.632-.588 2.818-1.194 5.619-1.782 8.437-.909 4.327 5.752 6.172 6.66 1.828.589-2.818 1.194-5.619 1.783-8.437.403-1.879.639-3.942 1.127-5.871 4.457.688 10.528 3.59 12.63-1.71.926-2.349 1.043-4.999.623-7.565a80.735 80.735 0 0 0 9.62 1.409c1.783.151 3.566-1.694 3.465-3.455l-.572-8.555c-.084-1.19-.807-3.941.387-4.63 1.262-.72 3.684.236 4.928.487 2.44.503 4.895.772 7.266-.117 1.817-.688 2.843-2.264 2.422-4.244-.42-1.945-.74-3.891-1.026-5.837 3.011.252 6.005.671 8.982 1.309 4.339.922 6.189-5.72 1.833-6.642a85.614 85.614 0 0 0-14.75-1.795c-1.75-.05-3.633 1.627-3.465 3.455.235 2.466.555 4.915.975 7.347-1.514-.218-3.027-.722-4.507-.89-2.557-.285-5.265.101-7.3 1.745-2.388 1.929-2.943 4.848-2.809 7.766.118 2.248.27 4.478.438 6.726a70.357 70.357 0 0 1-10.31-2.298c-2.927-.889-5.366 2.516-3.902 5.066l.016.016zm29.383 59.276a85.65 85.65 0 0 1-8.544-1.241c3.061-2.348 6.022-4.83 8.813-7.497 1.817-1.711 1.026-5.234-1.53-5.754-2.338-.486-4.693-.972-7.03-1.476l-2.624-.553c.437-.52.891-1.04 1.329-1.56 1.43-1.677 2.876-3.371 4.305-5.049 1.548-1.811 1.228-5.216-1.53-5.753-3.818-.771-7.653-1.358-11.521-1.845-1.85-.235-3.465 1.745-3.465 3.439 0 2.063 1.598 3.203 3.465 3.455 1.362.168 2.724.386 4.087.604-.606.704-1.211 1.425-1.817 2.13-1.85 2.164-5.163 4.831-3.7 7.984 1.312 2.801 5.197 2.885 7.855 3.438.756.151 1.513.319 2.287.47a100.23 100.23 0 0 1-8.847 6.625c-2.422 1.611-2.153 5.485.824 6.307 5.77 1.577 11.673 2.617 17.627 3.17 1.867.168 3.464-1.711 3.464-3.455 0-2.013-1.597-3.271-3.464-3.455l.016.016zm9.049 22.527c1.564 4.008 3.128 8.017 4.676 12.043.454 1.157 1.16 2.063 2.422 2.415 1.177.319 2.506 0 3.364-.889 2.22-2.298 4.339-4.16 6.677-5.87a48.56 48.56 0 0 0 3.902 12.277c.773 1.644 3.263 2.181 4.726 1.242 1.682-1.091 2.069-2.969 1.245-4.714-2.052-4.361-3.398-9.929-3.633-14.743-.118-2.55-2.86-4.361-5.197-2.969a61.648 61.648 0 0 0-8.797 6.357c-.908-2.315-1.799-4.646-2.708-6.961-.656-1.677-2.354-3.019-4.255-2.415-1.631.52-3.111 2.432-2.422 4.243v-.016zm46.169 40.993c-.539-1.191-2.153-4.948-.808-6.072 1.009-.855 3.398-.067 4.525.151 2.136.403 4.238.906 6.324 1.459 4.305 1.141 6.139-5.501 1.833-6.642-5.265-1.409-13.405-4.31-17.795.386-2.001 2.147-2.405 4.848-2.069 7.565-1.345-.352-2.691-.705-4.053-1.023-2.859-.655-5.786-.453-7.737 1.945-1.429 1.745-1.631 4.009-1.682 6.173 0 .872-.218 1.979-.084 2.834v.084c-.269-.151-.975-.419-1.143-.503-.892-.453-1.75-.922-2.658-1.325-2.203-.956-4.692-1.342-6.896-.101-4.389 2.483-3.801 8.169-3.027 12.932-4.154-.855-7.804-3.572-11.235-6.071-1.514-1.107-3.852-.252-4.727 1.241-1.025 1.744-.269 3.606 1.245 4.713 5.45 3.992 11.673 8.001 18.753 7.229 1.682-.184 3.701-1.442 3.465-3.455-.336-2.818-.807-5.653-1.009-8.47-.034-.47-.084-.973-.034-1.443 0-.084.084-.302.135-.503.101.033.219.05.252.067 3.6 1.191 6.492 4.009 10.445 1.778 3.616-2.046 3.263-6.173 3.481-9.712 0-.234.068-.57.101-.838.32.201 1.329.285 1.699.369 2.943.754 5.887 1.526 8.813 2.298 3.146.821 5.08-2.416 3.902-5.066h-.016zm-21.563 7.011c-.134.067-.033.151 0 0zm-43.83-25.394-5.92.805.908-3.925c.588-2.499-1.632-4.998-4.255-4.244-2.288.671-4.575 1.342-6.863 1.996a354.79 354.79 0 0 1-3.414.99l.605-2.549c.556-2.332 1.11-4.663 1.682-7.012 1.026-4.31-5.634-6.155-6.66-1.828a1705.83 1705.83 0 0 1-2.136 8.89c-.74 3.103-2.035 7.078 1.38 9.108 2.505 1.476 5.364.503 7.904-.235 1.228-.352 2.473-.721 3.7-1.074-.235 1.007-.47 2.013-.706 3.003-.656 2.801 1.665 4.596 4.255 4.243 2.019-.268 4.02-.536 6.038-.805a46.22 46.22 0 0 0-.588 6.642c-.068 4.445 6.845 4.445 6.912 0a38.99 38.99 0 0 1 1.396-9.762c.774-2.801-1.749-4.579-4.255-4.243h.017zm-20.082-2.063s.134-.319.202-.604c.084.184.05.402-.202.604zM42.017 26.01c2.892 1.51 5.785 3.036 8.678 4.546-2.506 1.795-5.029 3.573-7.535 5.367-2.22 1.577-2.338 5.636.824 6.307 2.506.537 5.012 1.057 7.535 1.594-1.715 1.291-3.43 2.566-5.146 3.857-1.968 1.476-2.473 4.58 0 5.955a68.444 68.444 0 0 0 9.385 4.26c-1.262.94-2.658 1.728-4.121 2.382-1.715.755-2.102 3.237-1.245 4.713 1.026 1.761 3.011 1.996 4.726 1.241 4.054-1.778 7.317-4.63 9.94-8.151 1.363-1.829-.117-4.53-2.068-5.066a59.155 59.155 0 0 1-8.326-2.986c2.237-1.677 4.474-3.354 6.728-5.031 2.153-1.61 2.372-5.62-.824-6.307-2.422-.52-4.844-1.023-7.283-1.543 1.9-1.359 3.818-2.717 5.719-4.076 1.984-1.409 2.489-4.646 0-5.955-4.508-2.364-8.998-4.713-13.506-7.078-3.936-2.063-7.434 3.892-3.481 5.955v.016zM163.77 262.578a82.32 82.32 0 0 0-7.35-2.751 61.165 61.165 0 0 1 5.416-3.052c2.254-1.124 2.254-4.831 0-5.955-3.852-1.929-7.888-3.455-12.076-4.478-1.749-.436-3.835.553-4.256 2.415-.403 1.778.539 3.774 2.422 4.244 1.481.369 2.944.805 4.39 1.291a69.243 69.243 0 0 0-6.256 4.563c-1.985 1.61-.875 5.249 1.53 5.753 2.271.486 4.524 1.056 6.728 1.761 1.076.335 2.153.704 3.229 1.09.555.201 1.11.419 1.665.637.236.084.454.185.69.269.101.05.201.084.319.134.034 0 .051.017.084.034.892.385 1.682.62 2.658.352.807-.218 1.665-.839 2.068-1.577.791-1.476.539-3.958-1.244-4.713l-.017-.017zm-82.38-20.312c-.521-2.281-1.917-4.126-4.49-4.109-2.238 0-4.206 2.113-5.854 3.371-.74.57-1.497 1.258-2.287 1.828a6.944 6.944 0 0 0-1.783-2.499c-1.648-1.476-3.902-2.399-6.139-2.382-2.657.034-5.08 1.241-7.098 2.902-.857.704-1.597 1.526-2.304 2.382-.185.235-.303.386-.404.503a.424.424 0 0 1-.201-.117c-2.826-2.701-5.03-9.712-10.31-7.28-2.49 1.141-3.415 4.21-4.525 6.508-.588 1.224-1.194 2.466-1.783 3.69-.32.654-.622 1.61-.992 2.482-1.732.52-3.061 2.215-2.826 4.177.37 2.868 3.617 4.294 6.072 2.851 2.12-1.241 3.061-4.679 4.07-6.759a914.577 914.577 0 0 1 1.968-4.059c.118-.235.219-.487.32-.755.017.033.05.084.067.117.589.973 1.16 1.912 1.884 2.801 1.295 1.611 3.111 2.751 5.163 3.137 2.12.386 4.29-.134 5.82-1.694 1.362-1.392 2.388-3.405 4.457-3.875 1.177-.268 1.984.168 2.354 1.174.404 1.141.253 2.114 1.178 3.087.656.687 1.53 1.073 2.439 1.274 2.068.453 4.137-.369 5.768-1.593.96-.721 1.918-1.459 2.877-2.197.117-.101.252-.185.37-.285.016.1.033.184.05.285.252 1.442.521 2.868.774 4.31.32 1.829 2.573 2.869 4.255 2.416 1.934-.537 2.742-2.399 2.422-4.244-.437-2.465-.774-4.998-1.329-7.447h.017zm-40.08-53.137c-.959-2.701-4.289-3.707-6.627-4.864-1.58-.789-3.162-1.577-4.76-2.365 1.279-1.107 2.54-2.214 3.819-3.322 2.018-1.761 5.365-3.706 5.398-6.709.034-3.052-2.69-4.512-5.298-5.132-1.11-.269-2.237-.52-3.347-.772 3.448-3.153 6.896-6.323 10.344-9.477 1.564-1.425 1.262-4.445-.706-5.417-2.927-1.443-5.517-3.238-7.855-5.519-3.179-3.103-8.073 1.761-4.894 4.881a35.981 35.981 0 0 0 5.23 4.227c-3.901 3.59-7.82 7.179-11.722 10.768-1.884 1.728-.959 5.183 1.53 5.754 2.002.452 4.003.922 5.988 1.375.454.101.925.218 1.379.319-.841.738-1.682 1.459-2.506 2.197l-5.954 5.183c-1.615 1.409-1.211 4.461.706 5.418 2.422 1.19 4.827 2.398 7.25 3.589l3.43 1.711.202.1a40.45 40.45 0 0 0-1.749 1.107 572.692 572.692 0 0 1-5.264 3.556c-3.667 2.483-.202 8.454 3.481 5.955 2.81-1.896 5.635-3.774 8.41-5.703 2.355-1.627 4.591-3.724 3.498-6.86h.017zM12.415 90.084c3.565-.537 7.064-1.342 10.495-2.349a16.013 16.013 0 0 1-2.439 3.959c-2.203 2.6-.134 6.558 3.364 5.753 2.456-.57 4.928-1.14 7.384-1.694-1.211 2.55-2.422 5.099-3.633 7.632-.808 1.677-.471 3.723 1.244 4.713 1.497.872 3.92.453 4.727-1.241 2.27-4.781 4.54-9.56 6.811-14.325 1.295-2.717-.824-5.77-3.902-5.065-2.237.52-4.49 1.04-6.728 1.543a23.592 23.592 0 0 0 1.346-6.474c.135-2.097-2.338-4.093-4.373-3.321-3.347 1.258-6.778 2.264-10.26 3.07 1.06-3.523 2.136-7.062 3.196-10.585 1.278-4.26-5.382-6.072-6.66-1.828C11.372 75.19 9.774 80.523 8.16 85.84c-.841 2.768 1.8 4.613 4.255 4.244z"/></g><defs><filter id="a" width="346" height="281" x="0" y="0" color-interpolation-filters="sRGB" filterUnits="userSpaceOnUse"><feFlood flood-opacity="0" result="BackgroundImageFix"/><feColorMatrix in="SourceAlpha" result="hardAlpha" values="0 0 0 0 0 0 0 0 0 0 0 0 0 0 0 0 0 0 127 0"/><feOffset dy="4"/><feGaussianBlur stdDeviation="4"/><feComposite in2="hardAlpha" operator="out"/><feColorMatrix values="0 0 0 0 0 0 0 0 0 0 0 0 0 0 0 0 0 0 0.02 0"/><feBlend in2="BackgroundImageFix" result="effect1_dropShadow_1368_1335"/><feBlend in="SourceGraphic" in2="effect1_dropShadow_1368_1335" result="shape"/></filter></defs></svg>