<?xml version="1.0" encoding="UTF-8"?>
<svg version="1.1" viewBox="0 0 1788 1788" width="1280" height="1280" xmlns="http://www.w3.org/2000/svg">
<path transform="translate(1179,521)" d="m0 0h13l38 2 28 4 37 8 30 9 22 8 17 7 30 15 27 16 20 14 14 11 13 11 11 9 26 26 7 8 12 13 12 16 11 15 17 26 15 27 10 22 9 23 9 29 9 40 5 35 2 24v56l-2 23-3 9-2 2-8 1h-218l-33-1-2 35-4 26-7 25-10 23-7 13-10 15-9 11-12 14-13 12-14 11-14 9-22 12-20 8-18 5-19 4-28 3h-9l-3-3-1-4-1-190v-490l1-43 6-2 8-1z" fill="#FECF1E"/>
<path transform="translate(937,535)" d="m0 0 3 1-8 7-12 9-13 10-10 9-8 7-12 11-11 12-9 11-11 13-9 12-13 18-13 20-14 25-11 22-11 25-8 23-8 27-7 32-3 18-3 39v47l3 36 4 28 8 31 8 26 9 24 10 23 10 19 13 22 12 19 12 17 12 15 9 11 9 9 7 8 9 9 8 7 10 9 5 7-1 2h-33l-63-3-53-5-42-6-45-9-48-12-41-12-24-8-6-3 1-5 9-10 2-3h2l2-4 8-8 7-8 3-4h2l2-4 13-14 1-2h2l2-4 16-16 7-8 15-16 7-8 14-15 8-9 2-4-15-2-30-2-35-5-40-9-35-10-41-14-31-13-37-16-39-20-23-13-29-17-21-13-32-21-15-10-17-12-19-14-21-16-13-10-13-11-14-12-10-8-7-7 1-4 19-7 40-13 27-9 35-11 41-14 95-31 23-7 31-10 64-21 36-12 70-23 34-11 41-13 43-14 40-13 115-37 27-10z" fill="#6EDC39"/>
<path transform="translate(1137,1030)" d="m0 0h218v11l-3 32-4 23-8 25-9 20-5 9-3 7-9 13-12 14-9 10-8 7-13 11-15 10-24 13-20 8-18 5-19 4-23 1h-13l-2-1-1-18z" fill="#EF851C"/>
<path transform="translate(979,706)" d="m0 0 17 1 15 4 16 7 10 7 12 11 9 13 6 14 4 16 1 8v20l-3 14-7 16-10 14-4 5h-2l-1 3-13 10-16 8-11 3-15 2h-13l-15-2-12-4-16-8-13-11-9-11-8-14-6-16-2-15v-14l2-15 5-14 7-12 8-10 10-10 10-7 16-8 17-4z" fill="#6EDC39"/>
<path transform="translate(1179,521)" d="m0 0h13l38 2 28 4 37 8 30 9 22 8 17 7 30 15 27 16 20 14 14 11 13 11 11 9 26 26 7 8 12 13 12 16 11 15 17 26 15 27 10 22 9 23 9 29 9 40 5 35 2 24v56l-2 23-2 7h-1v-11l1-11 1-23v-32l-2-30-4-32-6-28-8-31-8-23-11-26-8-16-9-17-15-24-12-17-10-13-8-10-9-10-12-13-20-20-8-7-11-9-15-12-20-14-20-12-18-10-29-14-26-10-24-8-32-8-33-6-18-2-16-1h-38l-33 1 1 726h31v1l-21 2h-9l-3-3-1-4-1-190v-490l1-43 6-2 8-1z" fill="#FDFFFF"/>
<path transform="translate(937,535)" d="m0 0 3 1-5 5-4-1-23 7-31 10-64 21-43 14-32 10-36 12-99 32-33 11-43 14-36 12-40 13-35 11-178 58-31 10-66 22-2 2 1 3 4 2 9 8 11 9 13 11 14 11 18 14 19 14 18 13 45 30 22 14 26 15 13 8 11 6 33 17 24 12 26 11 37 15 28 10 42 12 36 8 23 4 44 5v1h-17l-33-4-22-4-35-8-31-9-41-14-31-13-37-16-39-20-23-13-29-17-21-13-32-21-15-10-17-12-19-14-21-16-13-10-13-11-14-12-10-8-7-7 1-4 19-7 40-13 27-9 35-11 41-14 95-31 23-7 31-10 64-21 36-12 70-23 34-11 41-13 43-14 40-13 115-37 27-10z" fill="#FDFFFF"/>
<path transform="translate(747,847)" d="m0 0h1v10l-2 29v47l3 36 4 28 8 31 8 26 9 24 10 23 10 19 13 22 12 19 12 17 12 15 9 11 9 9 7 8 9 9 8 7 10 9 5 7-1 2h-33l-63-3-53-5-42-6-45-9-48-12-41-12-24-8-6-3 1-5 9-10 2-3h2l2-4 8-8 7-8 3-4h2l2-4 13-14 1-2h2l2-4 16-16 7-8 15-16 7-8 14-15 8-9 2-4-2-1 4 1-1 4-7 8-15 16-11 12-7 8-30 32-13 14-7 8-12 13-9 10-11 12-1 4 33 11 43 12 37 9 33 7 49 8 34 4 37 3 52 2h30l-2-4-12-11-8-7-16-17-10-11-9-11-14-18-14-21-12-20-13-23-10-22-11-28-12-39-6-27-4-26-3-31v-50l3-31z" fill="#FDFFFF"/>
<path transform="translate(979,706)" d="m0 0 17 1 15 4 16 7 10 7 12 11 9 13 6 14 4 16 1 8v20l-3 14-7 16-10 14-4 5h-2l-1 3-13 10-16 8-11 3-15 2h-13l-15-2-12-4-16-8-13-11-9-11-8-14-6-16-2-15v-14l2-15 5-14 7-12 8-10 10-10 10-7 16-8 17-4zm-9 2-17 4-12 5-12 8-12 11-8 10-8 14-5 16-1 13v10l2 17 6 16 9 15 12 13 13 9 14 7 16 4h29l15-4 16-8 13-10 9-10 10-15 6-15 2-8v-26l-4-18-6-14-8-12-9-10-12-9-17-8-14-4-7-1z" fill="#FDFFFF"/>
<path transform="translate(907,559)" d="m0 0 2 1-12 11-8 7-12 11-11 12-9 11-11 13-9 12-13 18-13 20-14 25-11 22-11 25-7 19-1-3 6-17 13-30 12-24 12-21 16-24 14-19 12-14 9-11 14-15 12-12 8-7z" fill="#FDFFFF"/>
<path transform="translate(931,541)" d="m0 0 2 1-13 10-9 7-2-1 8-7z" fill="#FDFFFF"/>
</svg>
