<?xml version="1.0" encoding="UTF-8"?>
<svg version="1.1" viewBox="0 0 2048 2048" width="512" height="512" xmlns="http://www.w3.org/2000/svg">
<path transform="translate(191,479)" d="m0 0h1665l20 2 21 5 20 7 17 8 18 11 13 10 15 14 12 13 6 9 7 10 8 14 7 16 7 21 4 20 1 10v658l-2 20-5 21-7 20-8 16-7 12-10 14-12 13-4 5h-2l-1 3-8 7-12 10-15 9-16 8-14 6-20 6-15 3-17 2h-383l-217 1 9 20 12 30 16 39 20 49 13 32 9 21 1 5-5-1-26-14-15-9-23-12-13-8-23-12-9-6-25-13-13-8-23-12-13-8-23-12-11-7-23-12-13-8-17-9-15-9-21-11-15-9-21-11-7-5-131-1h-663l-22-3-23-6-20-8-15-8-22-15-32-32-11-16-9-16-8-19-6-21-4-20-1-6v-666l6-28 6-20 8-16 8-15 14-20 12-13 9-9 12-9 13-9 14-8 17-8 19-6 25-5z" fill="#7C54B0"/>
<path transform="translate(885,590)" d="m0 0h12l15 3 12 5 11 7 10 9 8 10 6 12 4 17v14l-4 16-5 12-12 26-11 27-12 37-12 43-7 30-9 42-8 43-9 56-7 48-7 57-5 52-3 47-1 31v30l1 41v17l-2 13-4 13-7 14-9 10-8 6-8 4-14 4h-12l-13-3-18-8-14-10-13-12-9-10-13-15-14-17-14-19-23-35-9-15-13-23-23-46-13-30-17-44-14-40-8-25-8-24-10 19-19 38-10 19-14 27-34 68-13 28-24 48-13 23-13 21-15 22-10 14-11 12-7 8-9 9-14 10-15 7-8 2h-9l-12-4-9-6-9-9-10-15-8-15-10-25-12-36-12-41-12-44-14-59-11-50-14-67-18-96-12-67-20-122-4-26v-21l4-15 7-13 11-12 10-8 14-6 16-3h24l16 4 11 6 6 5v2h2l9 14 5 13 5 28 12 80 12 70 15 81 16 80 13 58 9 38 3 11 3-3 12-23 6-12 8-14 11-22 10-18 8-16 15-28 12-24 9-16 8-16 15-28 16-31 10-19 11-20 8-16 15-29 12-20 12-13 5-5 8-6 13-6 8-2h19l12 3 12 6 10 9 8 13 7 16 4 14 12 60 11 48 9 35 17 59 17 51 12 30h1l2-24 8-65 10-65 8-44 10-49 13-52 11-38 12-35 13-32 8-18 8-16 8-14 9-11 14-11 12-5z" fill="#FEFFFE"/>
<path transform="translate(1697,679)" d="m0 0h36l31 5 21 6 21 8 23 12 11 8 11 9 19 19 13 17 9 15 12 23 7 16 9 27 5 21 4 24 2 21 1 36-2 39-4 33-6 30-8 29-9 26-9 21-14 29-13 23-14 21-13 17-14 15-19 19-17 13-16 10-16 8-20 8-25 6-22 3h-30l-22-3-26-6-23-8-19-9-16-10-11-9-14-13v-2h-2l-7-8-9-11-10-15-12-22-9-21-9-27-6-25-4-27-2-20v-53l3-33 4-26 7-31 8-28 8-21 12-28 10-19 14-24 11-16 13-17 12-14 13-14 8-7 16-13 16-10 21-11 21-8 21-5z" fill="#FEFFFE"/>
<path transform="translate(1185,679)" d="m0 0h33l28 4 20 5 18 6 16 7 17 10 14 10 12 11 7 6 7 8 13 17 11 18 11 21 10 26 7 25 5 24 4 34 1 22v18l-1 25-4 36-5 27-8 32-12 35-11 25-8 16-11 21-13 21-14 19-9 11-12 13-9 9-8 7-15 12-16 10-16 8-14 6-23 7-24 4-9 1h-30l-27-4-26-7-21-8-20-10-15-10-14-12-10-10-7-8-12-16-11-18-8-16-8-18-10-30-5-23-4-26-2-20v-53l4-40 5-28 6-25 7-23 9-25 13-29 11-21 12-20 8-12 12-16 9-11 12-13 13-13 8-7 13-10 20-12 14-7 22-8 21-5z" fill="#FEFFFE"/>
<path transform="translate(1713,817)" d="m0 0h12l11 2 12 6 12 11 9 14 8 15 7 18 6 22 4 27v34l-3 28-6 28-9 29-8 20-10 18-8 12-11 14-15 15-15 11-16 9-13 4h-20l-12-5-10-7-7-7-9-13-8-15-8-22-6-24-2-12-1-12v-32l3-24 5-25 6-19 8-20 12-24 13-21 12-16 8-10 10-10 13-9 14-7z" fill="#7C54B0"/>
<path transform="translate(1200,817)" d="m0 0h9l13 2 12 6 10 9 8 10 8 14 7 16 8 26 3 14 2 15 1 16v18l-3 27-6 29-7 24-7 19-10 21-10 16-10 13-11 12-8 7-15 11-17 9-9 3h-20l-10-3-10-6-11-10-7-10-8-16-6-14-7-22-4-21-2-16v-22l3-31 4-20 6-21 7-20 12-25 12-20 12-17 8-10 7-8 11-9 11-8 11-5z" fill="#7C54B0"/>
</svg>
